%TF.GenerationSoftware,KiCad,Pcbnew,9.0.7*%
%TF.CreationDate,2026-01-31T08:24:14+01:00*%
%TF.ProjectId,p2,70322e6b-6963-4616-945f-706362585858,rev?*%
%TF.SameCoordinates,Original*%
%TF.FileFunction,Copper,L1,Top*%
%TF.FilePolarity,Positive*%
%FSLAX46Y46*%
G04 Gerber Fmt 4.6, Leading zero omitted, Abs format (unit mm)*
G04 Created by KiCad (PCBNEW 9.0.7) date 2026-01-31 08:24:14*
%MOMM*%
%LPD*%
G01*
G04 APERTURE LIST*
%TA.AperFunction,ComponentPad*%
%ADD10R,1.200000X2.000000*%
%TD*%
%TA.AperFunction,ComponentPad*%
%ADD11O,1.200000X2.000000*%
%TD*%
%TA.AperFunction,ComponentPad*%
%ADD12C,2.000000*%
%TD*%
%TA.AperFunction,ComponentPad*%
%ADD13C,1.600000*%
%TD*%
%TA.AperFunction,ComponentPad*%
%ADD14R,1.800000X1.800000*%
%TD*%
%TA.AperFunction,ComponentPad*%
%ADD15C,1.800000*%
%TD*%
%TA.AperFunction,Conductor*%
%ADD16C,0.200000*%
%TD*%
G04 APERTURE END LIST*
D10*
%TO.P,U1,1,3V3*%
%TO.N,+3.3V*%
X122596560Y-106200000D03*
D11*
%TO.P,U1,2,CHIP_PU*%
%TO.N,unconnected-(U1-CHIP_PU-Pad2)*%
X125136560Y-106200000D03*
%TO.P,U1,3,SENSOR_VP/GPIO36/ADC1_CH0*%
%TO.N,unconnected-(U1-SENSOR_VP{slash}GPIO36{slash}ADC1_CH0-Pad3)*%
X127676560Y-106200000D03*
%TO.P,U1,4,SENSOR_VN/GPIO39/ADC1_CH3*%
%TO.N,unconnected-(U1-SENSOR_VN{slash}GPIO39{slash}ADC1_CH3-Pad4)*%
X130216560Y-106200000D03*
%TO.P,U1,5,VDET_1/GPIO34/ADC1_CH6*%
%TO.N,unconnected-(U1-VDET_1{slash}GPIO34{slash}ADC1_CH6-Pad5)*%
X132756560Y-106200000D03*
%TO.P,U1,6,VDET_2/GPIO35/ADC1_CH7*%
%TO.N,unconnected-(U1-VDET_2{slash}GPIO35{slash}ADC1_CH7-Pad6)*%
X135296560Y-106200000D03*
%TO.P,U1,7,32K_XP/GPIO32/ADC1_CH4*%
%TO.N,unconnected-(U1-32K_XP{slash}GPIO32{slash}ADC1_CH4-Pad7)*%
X137836560Y-106200000D03*
%TO.P,U1,8,32K_XN/GPIO33/ADC1_CH5*%
%TO.N,unconnected-(U1-32K_XN{slash}GPIO33{slash}ADC1_CH5-Pad8)*%
X140376560Y-106200000D03*
%TO.P,U1,9,DAC_1/ADC2_CH8/GPIO25*%
%TO.N,unconnected-(U1-DAC_1{slash}ADC2_CH8{slash}GPIO25-Pad9)*%
X142916560Y-106200000D03*
%TO.P,U1,10,DAC_2/ADC2_CH9/GPIO26*%
%TO.N,unconnected-(U1-DAC_2{slash}ADC2_CH9{slash}GPIO26-Pad10)*%
X145456560Y-106200000D03*
%TO.P,U1,11,ADC2_CH7/GPIO27*%
%TO.N,unconnected-(U1-ADC2_CH7{slash}GPIO27-Pad11)*%
X147996560Y-106200000D03*
%TO.P,U1,12,MTMS/GPIO14/ADC2_CH6*%
%TO.N,unconnected-(U1-MTMS{slash}GPIO14{slash}ADC2_CH6-Pad12)*%
X150536560Y-106200000D03*
%TO.P,U1,13,MTDI/GPIO12/ADC2_CH5*%
%TO.N,unconnected-(U1-MTDI{slash}GPIO12{slash}ADC2_CH5-Pad13)*%
X153076560Y-106200000D03*
%TO.P,U1,14,GND*%
%TO.N,GND*%
X155616560Y-106200000D03*
%TO.P,U1,15,MTCK/GPIO13/ADC2_CH4*%
%TO.N,unconnected-(U1-MTCK{slash}GPIO13{slash}ADC2_CH4-Pad15)*%
X158156560Y-106200000D03*
%TO.P,U1,16,SD_DATA2/GPIO9*%
%TO.N,unconnected-(U1-SD_DATA2{slash}GPIO9-Pad16)*%
X160696560Y-106200000D03*
%TO.P,U1,17,SD_DATA3/GPIO10*%
%TO.N,unconnected-(U1-SD_DATA3{slash}GPIO10-Pad17)*%
X163236560Y-106200000D03*
%TO.P,U1,18,CMD*%
%TO.N,unconnected-(U1-CMD-Pad18)*%
X165776560Y-106200000D03*
%TO.P,U1,19,5V*%
%TO.N,unconnected-(U1-5V-Pad19)*%
X168316560Y-106200000D03*
%TO.P,U1,20,SD_CLK/GPIO6*%
%TO.N,unconnected-(U1-SD_CLK{slash}GPIO6-Pad20)*%
X168313840Y-80803680D03*
%TO.P,U1,21,SD_DATA0/GPIO7*%
%TO.N,unconnected-(U1-SD_DATA0{slash}GPIO7-Pad21)*%
X165773840Y-80803680D03*
%TO.P,U1,22,SD_DATA1/GPIO8*%
%TO.N,unconnected-(U1-SD_DATA1{slash}GPIO8-Pad22)*%
X163236560Y-80800000D03*
%TO.P,U1,23,MTDO/GPIO15/ADC2_CH3*%
%TO.N,unconnected-(U1-MTDO{slash}GPIO15{slash}ADC2_CH3-Pad23)*%
X160696560Y-80800000D03*
%TO.P,U1,24,ADC2_CH2/GPIO2*%
%TO.N,unconnected-(U1-ADC2_CH2{slash}GPIO2-Pad24)*%
X158156560Y-80800000D03*
%TO.P,U1,25,GPIO0/BOOT/ADC2_CH1*%
%TO.N,unconnected-(U1-GPIO0{slash}BOOT{slash}ADC2_CH1-Pad25)*%
X155616560Y-80800000D03*
%TO.P,U1,26,ADC2_CH0/GPIO4*%
%TO.N,unconnected-(U1-ADC2_CH0{slash}GPIO4-Pad26)*%
X153076560Y-80800000D03*
%TO.P,U1,27,GPIO16*%
%TO.N,unconnected-(U1-GPIO16-Pad27)*%
X150536560Y-80800000D03*
%TO.P,U1,28,GPIO17*%
%TO.N,unconnected-(U1-GPIO17-Pad28)*%
X147996560Y-80800000D03*
%TO.P,U1,29,GPIO5*%
%TO.N,unconnected-(U1-GPIO5-Pad29)*%
X145456560Y-80800000D03*
%TO.P,U1,30,GPIO18*%
%TO.N,Net-(U1-GPIO18)*%
X142916560Y-80800000D03*
%TO.P,U1,31,GPIO19*%
%TO.N,unconnected-(U1-GPIO19-Pad31)*%
X140376560Y-80800000D03*
%TO.P,U1,32,GND*%
%TO.N,GND*%
X137836560Y-80800000D03*
%TO.P,U1,33,GPIO21*%
%TO.N,unconnected-(U1-GPIO21-Pad33)*%
X135296560Y-80800000D03*
%TO.P,U1,34,U0RXD/GPIO3*%
%TO.N,unconnected-(U1-U0RXD{slash}GPIO3-Pad34)*%
X132756560Y-80800000D03*
%TO.P,U1,35,U0TXD/GPIO1*%
%TO.N,unconnected-(U1-U0TXD{slash}GPIO1-Pad35)*%
X130216560Y-80800000D03*
%TO.P,U1,36,GPIO22*%
%TO.N,unconnected-(U1-GPIO22-Pad36)*%
X127676560Y-80800000D03*
%TO.P,U1,37,GPIO23*%
%TO.N,Net-(U1-GPIO23)*%
X125136560Y-80800000D03*
%TO.P,U1,38,GND*%
%TO.N,GND*%
X122596560Y-80800000D03*
%TD*%
D12*
%TO.P,SW1,1,1*%
%TO.N,Net-(U1-GPIO18)*%
X155250000Y-60750000D03*
X155250000Y-67250000D03*
%TO.P,SW1,2,2*%
%TO.N,+3.3V*%
X150750000Y-60750000D03*
X150750000Y-67250000D03*
%TD*%
D13*
%TO.P,R2,1*%
%TO.N,Net-(U1-GPIO18)*%
X144810000Y-61000000D03*
%TO.P,R2,2*%
%TO.N,GND*%
X137190000Y-61000000D03*
%TD*%
%TO.P,R1,1*%
%TO.N,Net-(U1-GPIO23)*%
X128000000Y-73310000D03*
%TO.P,R1,2*%
%TO.N,Net-(D1-A)*%
X128000000Y-65690000D03*
%TD*%
D14*
%TO.P,D1,1,K*%
%TO.N,GND*%
X122000000Y-72770000D03*
D15*
%TO.P,D1,2,A*%
%TO.N,Net-(D1-A)*%
X122000000Y-70230000D03*
%TD*%
D13*
%TO.P,C1,1*%
%TO.N,Net-(U1-GPIO18)*%
X143000000Y-67500000D03*
%TO.P,C1,2*%
%TO.N,GND*%
X138000000Y-67500000D03*
%TD*%
D16*
%TO.N,Net-(U1-GPIO18)*%
X143000000Y-80716560D02*
X142916560Y-80800000D01*
X143000000Y-67500000D02*
X143000000Y-80716560D01*
%TO.N,+3.3V*%
X146161000Y-60750000D02*
X145911000Y-61000000D01*
X150750000Y-60750000D02*
X146161000Y-60750000D01*
X122596560Y-108903440D02*
X122596560Y-106200000D01*
X122500000Y-109000000D02*
X122596560Y-108903440D01*
X122500000Y-109500000D02*
X122500000Y-109000000D01*
X118000000Y-109500000D02*
X122500000Y-109500000D01*
X113000000Y-104500000D02*
X118000000Y-109500000D01*
X113000000Y-57500000D02*
X113000000Y-104500000D01*
X114000000Y-56500000D02*
X113000000Y-57500000D01*
X160500000Y-56500000D02*
X114000000Y-56500000D01*
X160500000Y-70500000D02*
X160500000Y-56500000D01*
X158500000Y-72500000D02*
X160500000Y-70500000D01*
X151000000Y-72500000D02*
X158500000Y-72500000D01*
X150750000Y-72250000D02*
X151000000Y-72500000D01*
X150750000Y-67250000D02*
X150750000Y-72250000D01*
%TO.N,Net-(U1-GPIO18)*%
X143000000Y-67500000D02*
X143000000Y-62810000D01*
X143000000Y-62810000D02*
X144810000Y-61000000D01*
%TO.N,GND*%
X137190000Y-65690000D02*
X137190000Y-61000000D01*
X138000000Y-67500000D02*
X138000000Y-66500000D01*
X138000000Y-66500000D02*
X137190000Y-65690000D01*
X137836560Y-67663440D02*
X138000000Y-67500000D01*
X137836560Y-80800000D02*
X137836560Y-67663440D01*
X122000000Y-80203440D02*
X122596560Y-80800000D01*
X122000000Y-72770000D02*
X122000000Y-80203440D01*
%TO.N,Net-(D1-A)*%
X128000000Y-65690000D02*
X126540000Y-65690000D01*
X126540000Y-65690000D02*
X122000000Y-70230000D01*
%TO.N,Net-(U1-GPIO23)*%
X128000000Y-78500000D02*
X128000000Y-73310000D01*
X125500000Y-81000000D02*
X128000000Y-78500000D01*
X125300000Y-80800000D02*
X125500000Y-81000000D01*
X125136560Y-80800000D02*
X125300000Y-80800000D01*
%TD*%
M02*
