M48
; DRILL file {KiCad 9.0.7} date 2026-01-31T08:24:26+0100
; FORMAT={-:-/ absolute / metric / decimal}
; #@! TF.CreationDate,2026-01-31T08:24:26+01:00
; #@! TF.GenerationSoftware,Kicad,Pcbnew,9.0.7
; #@! TF.FileFunction,Plated,1,2,PTH
FMAT,2
METRIC
; #@! TA.AperFunction,Plated,PTH,ComponentDrill
T1C0.800
; #@! TA.AperFunction,Plated,PTH,ComponentDrill
T2C0.900
; #@! TA.AperFunction,Plated,PTH,ComponentDrill
T3C1.100
%
G90
G05
T1
X122.597Y-80.8
X122.597Y-106.2
X125.137Y-80.8
X125.137Y-106.2
X127.677Y-80.8
X127.677Y-106.2
X128.0Y-65.69
X128.0Y-73.31
X130.217Y-80.8
X130.217Y-106.2
X132.757Y-80.8
X132.757Y-106.2
X135.297Y-80.8
X135.297Y-106.2
X137.19Y-61.0
X137.837Y-80.8
X137.837Y-106.2
X138.0Y-67.5
X140.377Y-80.8
X140.377Y-106.2
X142.917Y-80.8
X142.917Y-106.2
X143.0Y-67.5
X144.81Y-61.0
X145.457Y-80.8
X145.457Y-106.2
X147.997Y-80.8
X147.997Y-106.2
X150.537Y-80.8
X150.537Y-106.2
X153.077Y-80.8
X153.077Y-106.2
X155.617Y-80.8
X155.617Y-106.2
X158.157Y-80.8
X158.157Y-106.2
X160.697Y-80.8
X160.697Y-106.2
X163.237Y-80.8
X163.237Y-106.2
X165.774Y-80.804
X165.777Y-106.2
X168.314Y-80.804
X168.317Y-106.2
T2
X122.0Y-70.23
X122.0Y-72.77
T3
X150.75Y-60.75
X150.75Y-67.25
X155.25Y-60.75
X155.25Y-67.25
M30
